# xmcd CD database file
# Copyright (C) 1993-1998 Ti Kan
#
# Track frame offsets:
#	150
#	23025
#	48175
#	69750
#	90225
#	113775
#	135350
#	154875
#	179400
#	200500
#
# Disc length: 3039 seconds
#
# Revision: 1
# Processed by: cddbd v1.4b41PL1 Copyright (c) Steve Scherf et al.
# Submitted via: NotifyCDPlayer(CDDB) 1.51.2
#
DISCID=740bdd0a
DTITLE=Louisiana Red - Ashland Avenue Blues
DYEAR=1900
DGENRE=
TTITLE0=Ashland Avenue Blues
TTITLE1=Eva
TTITLE2=I Need A Job So Bad
TTITLE3=Call Him By His Name
TTITLE4=East Street Bridge
TTITLE5=Gimme Some
TTITLE6=Ida Mae
TTITLE7=They March And They Sing
TTITLE8=This Little Light Of Mine
TTITLE9=Good By Champion Jack Dupree
EXTD=Lousiana Red and The Chicago All Stars\n\nProduced by Rolf Schubert\nExec
EXTD=utive Producer: Christian Müller\n\nRecorded May 26, 1992 at Dezibel To
EXTD=nstudio Colongne/Germany
EXTT0=
EXTT1=
EXTT2=
EXTT3=
EXTT4=
EXTT5=
EXTT6=
EXTT7=
EXTT8=
EXTT9=
PLAYORDER=
